<mxfile host="app.diagrams.net" modified="2021-10-01T21:29:52.848Z" agent="5.0 (Macintosh; Intel Mac OS X 10_13_6) AppleWebKit/537.36 (KHTML, like Gecko) Chrome/93.0.4577.82 Safari/537.36" etag="UZHqciUm0fXZ2zqty3MU" version="15.4.1" type="github">
  <diagram id="2VDzocID4atmfYFC9NuJ" name="Page-1">
    <mxGraphModel dx="946" dy="535" grid="1" gridSize="10" guides="1" tooltips="1" connect="1" arrows="1" fold="1" page="1" pageScale="1" pageWidth="850" pageHeight="1100" math="0" shadow="0">
      <root>
        <mxCell id="0" />
        <mxCell id="1" parent="0" />
        <mxCell id="yX39dWFXJKRczpGKgtbc-1" value="" style="whiteSpace=wrap;html=1;aspect=fixed;" vertex="1" parent="1">
          <mxGeometry x="30" y="20" width="480" height="480" as="geometry" />
        </mxCell>
        <mxCell id="yX39dWFXJKRczpGKgtbc-2" value="Username of the person&amp;nbsp;&lt;br&gt;date posted" style="rounded=0;whiteSpace=wrap;html=1;" vertex="1" parent="1">
          <mxGeometry x="40" y="30" width="470" height="100" as="geometry" />
        </mxCell>
        <mxCell id="yX39dWFXJKRczpGKgtbc-3" value="Avatar" style="ellipse;whiteSpace=wrap;html=1;aspect=fixed;" vertex="1" parent="1">
          <mxGeometry x="50" y="40" width="80" height="80" as="geometry" />
        </mxCell>
        <mxCell id="yX39dWFXJKRczpGKgtbc-5" value="post content&amp;nbsp;&lt;br&gt;can be image, text with links, video" style="rounded=1;whiteSpace=wrap;html=1;" vertex="1" parent="1">
          <mxGeometry x="40" y="150" width="470" height="170" as="geometry" />
        </mxCell>
        <mxCell id="yX39dWFXJKRczpGKgtbc-7" value="like, comment, share&amp;nbsp;" style="rounded=1;whiteSpace=wrap;html=1;align=center;" vertex="1" parent="1">
          <mxGeometry x="40" y="330" width="470" height="60" as="geometry" />
        </mxCell>
        <mxCell id="yX39dWFXJKRczpGKgtbc-10" value="comment 1&amp;nbsp;" style="rounded=1;whiteSpace=wrap;html=1;align=center;" vertex="1" parent="1">
          <mxGeometry x="30" y="510" width="480" height="60" as="geometry" />
        </mxCell>
        <mxCell id="yX39dWFXJKRczpGKgtbc-11" value="Avatar" style="ellipse;whiteSpace=wrap;html=1;aspect=fixed;" vertex="1" parent="1">
          <mxGeometry x="40" y="520" width="50" height="50" as="geometry" />
        </mxCell>
        <mxCell id="yX39dWFXJKRczpGKgtbc-12" value="upload a comment" style="rounded=1;whiteSpace=wrap;html=1;align=center;" vertex="1" parent="1">
          <mxGeometry x="30" y="580" width="480" height="60" as="geometry" />
        </mxCell>
      </root>
    </mxGraphModel>
  </diagram>
</mxfile>
